<svg xmlns="http://www.w3.org/2000/svg" viewBox="0 0 20.43 30.69"><title>Asset 6location</title><g id="Layer_2" data-name="Layer 2"><g id="Layer_1-2" data-name="Layer 1"><path d="M20.43,10.23a8.58,8.58,0,0,1-.64,3.58L12.52,29.26a2.66,2.66,0,0,1-2.29,1.43,2.69,2.69,0,0,1-1.36-.39,2.05,2.05,0,0,1-.93-1L.64,13.81A8.57,8.57,0,0,1,0,10.23,9.85,9.85,0,0,1,3,3a9.85,9.85,0,0,1,7.23-3,9.85,9.85,0,0,1,7.23,3A9.73,9.73,0,0,1,20.43,10.23Zm-5.08,0a4.93,4.93,0,0,0-1.5-3.61,4.93,4.93,0,0,0-3.61-1.5,4.92,4.92,0,0,0-3.61,1.5,4.93,4.93,0,0,0-1.5,3.61,4.92,4.92,0,0,0,1.5,3.61,4.92,4.92,0,0,0,3.61,1.5,4.93,4.93,0,0,0,3.61-1.5A4.92,4.92,0,0,0,15.35,10.23Z"/></g></g></svg>