<svg xmlns="http://www.w3.org/2000/svg" viewBox="0 0 28.12 28.12"><title>Asset 1tel</title><g id="Layer_2" data-name="Layer 2"><g id="Layer_1-2" data-name="Layer 1"><path d="M28.12,22.21a6,6,0,0,1-.21,1.4A9.35,9.35,0,0,1,27.48,25,5.27,5.27,0,0,1,25,27.11a7.73,7.73,0,0,1-3.68,1A8.16,8.16,0,0,1,20.29,28a7.77,7.77,0,0,1-1.14-.25l-.93-.29-2.11-.75a18.72,18.72,0,0,1-3.47-1.68,30.71,30.71,0,0,1-5.29-4.29A27.15,27.15,0,0,1,3,15.49,17.26,17.26,0,0,1,1.4,12L1,11A11.3,11.3,0,0,0,.62,9.91,4.34,4.34,0,0,1,.33,9L.08,7.83A3.75,3.75,0,0,1,0,6.8,7.58,7.58,0,0,1,1,3.08,5.12,5.12,0,0,1,3.16.64,9.35,9.35,0,0,1,4.52.21,6,6,0,0,1,5.91,0a1,1,0,0,1,.43.07q.36.11,1.07,1.5L8,2.68A11.53,11.53,0,0,0,8.7,3.93,8.24,8.24,0,0,1,9.31,5a5.12,5.12,0,0,1,.36.5,7.06,7.06,0,0,1,.43.72,1.27,1.27,0,0,1,.14.57,1.56,1.56,0,0,1-.57,1A14.36,14.36,0,0,1,8.42,8.87,13.88,13.88,0,0,0,7.2,9.94a1.71,1.71,0,0,0-.57.89,1.4,1.4,0,0,0,.11.47l.14.39a3.34,3.34,0,0,0,.29.5q.25.39.25.36a20.49,20.49,0,0,0,3.47,4.72,20.79,20.79,0,0,0,4.69,3.47,2,2,0,0,1,.36.21,3,3,0,0,0,.5.29l.39.18a.77.77,0,0,0,.47.07q.36,0,.89-.57t1.07-1.22q.54-.64,1.11-1.25t1-.57a1.21,1.21,0,0,1,.54.14,7.06,7.06,0,0,1,.72.43,5.2,5.2,0,0,1,.5.36l3.43,1.93q1.4.68,1.5,1A1,1,0,0,1,28.12,22.21Z"/></g></g></svg>