<svg xmlns="http://www.w3.org/2000/svg" viewBox="0 0 30.66 30.69"><title>Asset 4linkedin</title><g id="Layer_2" data-name="Layer 2"><g id="Layer_1-2" data-name="Layer 1"><path d="M30.66,5.76V24.93A5.51,5.51,0,0,1,29,29a5.68,5.68,0,0,1-4.08,1.72H5.76A5.5,5.5,0,0,1,1.68,29a5.59,5.59,0,0,1-1.68-4V5.76a5.51,5.51,0,0,1,1.68-4A5.68,5.68,0,0,1,5.76,0H24.9A5.5,5.5,0,0,1,29,1.72,5.59,5.59,0,0,1,30.66,5.76Zm-21,1.79a2.39,2.39,0,0,0-.75-1.72,2.54,2.54,0,0,0-1.82-.68,2.8,2.8,0,0,0-1.9.68,2.12,2.12,0,0,0-.77,1.72,2.32,2.32,0,0,0,.73,1.72A2.59,2.59,0,0,0,7,9.94a2.64,2.64,0,0,0,1.9-.68A2.39,2.39,0,0,0,9.66,7.55ZM4.72,25.68H9.34V11.84H4.72Zm16.6,0h4.61V17.74a6.6,6.6,0,0,0-1.47-4.65,5,5,0,0,0-3.83-1.57,4.67,4.67,0,0,0-4.19,2.32h0v-2H11.88q.07,1.32,0,13.84h4.61V17.92a3.18,3.18,0,0,1,.14-1.11,3.05,3.05,0,0,1,.89-1.18,2.23,2.23,0,0,1,1.47-.5q2.33,0,2.33,3.15Z"/></g></g></svg>