<svg xmlns="http://www.w3.org/2000/svg" viewBox="0 0 35.77 28.12"><title>Asset 3mail</title><g id="Layer_2" data-name="Layer 2"><g id="Layer_1-2" data-name="Layer 1"><path d="M35.77,9.05V24.9a3.07,3.07,0,0,1-.93,2.25,3.2,3.2,0,0,1-2.25,1H3.18a3.09,3.09,0,0,1-2.25-1A3,3,0,0,1,0,24.9V9.05A12.81,12.81,0,0,0,2,10.8q7.23,4.9,9.94,6.87,1.14.86,1.82,1.32a10.54,10.54,0,0,0,1.9,1,5.28,5.28,0,0,0,2.18.47h.07A6,6,0,0,0,20.1,20,9.25,9.25,0,0,0,22,19q.72-.5,1.82-1.32,3.4-2.43,9.94-6.87A11,11,0,0,0,35.77,9.05Zm0-5.87a5.28,5.28,0,0,1-1,3,9.57,9.57,0,0,1-2.43,2.47Q24.86,13.88,23,15.13l-1.9,1.39a7.89,7.89,0,0,1-1,.64,11.93,11.93,0,0,1-1.14.54,2.23,2.23,0,0,1-1,.18h-.07a3.08,3.08,0,0,1-1-.18,6,6,0,0,1-1.14-.54l-1.07-.64a9.84,9.84,0,0,1-1.07-.79,5.94,5.94,0,0,0-.82-.61L7.51,11.52Q4.08,9.16,3.44,8.66A9.15,9.15,0,0,1,1.11,6.37,5,5,0,0,1,0,3.61,4,4,0,0,1,.82,1,2.84,2.84,0,0,1,3.18,0h29.4a3.15,3.15,0,0,1,2.25.93A2.9,2.9,0,0,1,35.77,3.18Z"/></g></g></svg>