<svg xmlns="http://www.w3.org/2000/svg" viewBox="0 0 32.17 25.61"><title>Asset 2home</title><g id="Layer_2" data-name="Layer 2"><g id="Layer_1-2" data-name="Layer 1"><path d="M32,13.38l-1.22,1.47a.74.74,0,0,1-.43.21h-.07a.82.82,0,0,1-.43-.11L16.07,3.43,2.26,15a.73.73,0,0,1-.48.11.72.72,0,0,1-.41-.21L.11,13.38A.64.64,0,0,1,0,12.91a.74.74,0,0,1,.21-.43L14.57.54A2.28,2.28,0,0,1,16.07,0a2.42,2.42,0,0,1,1.54.54l4.86,4V.72a.63.63,0,0,1,.18-.47.63.63,0,0,1,.47-.18h3.83a.63.63,0,0,1,.47.18.63.63,0,0,1,.18.47V8.84L32,12.48a.48.48,0,0,1,.21.43A.72.72,0,0,1,32,13.38Zm-4.44,1.4v9.55a1.16,1.16,0,0,1-.39.89,1.46,1.46,0,0,1-.89.39H18.64V18H13.53v7.66H5.87A1.16,1.16,0,0,1,5,25.22a1.45,1.45,0,0,1-.39-.89V14.63L16.07,5.19l11.48,9.44A.21.21,0,0,1,27.59,14.77Z"/></g></g></svg>