<svg xmlns="http://www.w3.org/2000/svg" viewBox="0 0 30.66 30.69"><title>Asset 5call</title><g id="Layer_2" data-name="Layer 2"><g id="Layer_1-2" data-name="Layer 1"><path d="M30.66,5.76V24.93A5.51,5.51,0,0,1,29,29a5.68,5.68,0,0,1-4.08,1.72H5.76A5.5,5.5,0,0,1,1.68,29a5.59,5.59,0,0,1-1.68-4V5.76a5.51,5.51,0,0,1,1.68-4A5.68,5.68,0,0,1,5.76,0H24.9A5.5,5.5,0,0,1,29,1.72,5.59,5.59,0,0,1,30.66,5.76ZM25.54,21.28a1.1,1.1,0,0,0,0-.32q0-.11-.36-.32l-.79-.5q-.47-.29-1-.54a9.74,9.74,0,0,1-.89-.5,4.22,4.22,0,0,0-.57-.32,1.81,1.81,0,0,1-.39-.25,1.87,1.87,0,0,0-.5-.29l-.39-.11a1.18,1.18,0,0,0-.75.43,9.15,9.15,0,0,0-.79.89q-.36.47-.75.89t-.68.39a.87.87,0,0,1-.32-.07L17,20.57a.74.74,0,0,1-.32-.21c-.12-.12-.21-.17-.29-.14A15.56,15.56,0,0,1,13,17.67a15.56,15.56,0,0,1-2.54-3.4L10.3,14a1.56,1.56,0,0,1-.18-.32,2.8,2.8,0,0,0-.14-.32A.46.46,0,0,1,9.91,13a1.06,1.06,0,0,1,.43-.68q.43-.39.89-.79t.89-.79a.92.92,0,0,0,.39-.72,1.36,1.36,0,0,0-.07-.43,1.59,1.59,0,0,0-.32-.5c-.17-.19-.25-.31-.25-.36l-.29-.57q-.21-.43-.5-.89t-.54-1a5,5,0,0,0-.5-.82,1.79,1.79,0,0,0-.32-.36.91.91,0,0,0-.32,0,4.89,4.89,0,0,0-2,.47A3.45,3.45,0,0,0,5.79,7.44a6.33,6.33,0,0,0-.68,2.61,6.77,6.77,0,0,0,0,.68,3.43,3.43,0,0,0,.11.61l.18.64a3.4,3.4,0,0,0,.21.61,5.36,5.36,0,0,1,.25.64l.21.61a17.41,17.41,0,0,0,4.33,6.4,18.54,18.54,0,0,0,6.37,4.33l.61.21.68.25.57.18.68.18q.32.07.61.11l.68.07a6.28,6.28,0,0,0,2.58-.68,3.64,3.64,0,0,0,1.9-1.61A5.42,5.42,0,0,0,25.54,21.28Z"/></g></g></svg>